<svg width="178" height="173" viewBox="0 0 178 173" fill="none" xmlns="http://www.w3.org/2000/svg">
<rect x="3.21875" width="173" height="173" rx="47" fill="#0E172A"/>
<g filter="url(#filter0_f_7220_89)">
<path d="M80.9975 74.6488C80.8191 73.0212 80.4401 71.5832 79.8604 70.3347C79.3031 69.0639 78.5339 67.9937 77.5529 67.1242C76.5719 66.2324 75.3791 65.5524 73.9746 65.0842C72.57 64.616 70.9424 64.3819 69.092 64.3819C65.5917 64.3819 62.3143 65.2515 59.2599 66.9905C56.2278 68.7295 53.6416 71.2599 51.5012 74.5819C49.3609 77.8815 47.9006 81.9169 47.1203 86.6881C46.3177 91.4592 46.3177 95.5169 47.1203 98.8611C47.9452 102.205 49.4947 104.758 51.7688 106.519C54.0652 108.258 57.0192 109.128 60.631 109.128C63.9084 109.128 66.8513 108.548 69.4598 107.389C72.0683 106.207 74.1975 104.546 75.8473 102.406C77.5195 100.266 78.5896 97.7352 79.0578 94.8146L81.9339 95.2493H64.3097L66.1156 84.3471H94.7758L93.3043 92.9752C92.3456 98.9949 90.2387 104.167 86.9837 108.493C83.7286 112.818 79.6709 116.14 74.8106 118.458C69.9726 120.777 64.6664 121.936 58.892 121.936C52.4711 121.936 47.0645 120.521 42.6724 117.689C38.3026 114.835 35.1925 110.789 33.342 105.55C31.5138 100.288 31.1905 94.0454 32.3722 86.8218C33.2863 81.2704 34.9138 76.3209 37.2548 71.9734C39.618 67.6036 42.5052 63.9026 45.9163 60.8705C49.3275 57.8384 53.1065 55.5308 57.2533 53.9479C61.4225 52.365 65.7589 51.5735 70.2624 51.5735C74.1418 51.5735 77.6532 52.142 80.7968 53.2791C83.9627 54.3938 86.6715 55.9767 88.9233 58.0279C91.1974 60.079 92.9141 62.5203 94.0735 65.3518C95.2551 68.1609 95.8013 71.2599 95.7121 74.6488H80.9975Z" fill="#0EA5E9"/>
</g>
<g filter="url(#filter1_f_7220_89)">
<path d="M87.8909 121L99.2613 52.5099H126.684C131.723 52.5099 135.803 53.2568 138.924 54.7505C142.068 56.2443 144.264 58.3177 145.512 60.9708C146.761 63.6016 147.095 66.6337 146.515 70.0672C146.047 72.7426 145.1 75.0835 143.673 77.0901C142.268 79.0966 140.529 80.7464 138.456 82.0396C136.382 83.3327 134.131 84.2468 131.7 84.7818L131.567 85.4507C134.153 85.5622 136.483 86.2979 138.556 87.6579C140.63 88.9956 142.179 90.8907 143.205 93.3431C144.23 95.7955 144.464 98.705 143.907 102.072C143.305 105.706 141.867 108.95 139.593 111.803C137.319 114.635 134.287 116.875 130.497 118.525C126.729 120.175 122.281 121 117.153 121H87.8909ZM104.378 109.161H116.183C120.196 109.161 123.262 108.381 125.38 106.82C127.498 105.26 128.769 103.197 129.192 100.634C129.482 98.7385 129.293 97.0664 128.624 95.6172C127.977 94.168 126.874 93.031 125.313 92.2061C123.775 91.3811 121.824 90.9687 119.461 90.9687H107.354L104.378 109.161ZM109.026 81.1701H119.762C121.723 81.1701 123.541 80.8245 125.213 80.1333C126.907 79.4199 128.3 78.4166 129.393 77.1235C130.508 75.8081 131.21 74.2586 131.5 72.475C131.901 69.978 131.344 67.9826 129.828 66.4888C128.334 64.9728 125.993 64.2147 122.805 64.2147H111.836L109.026 81.1701Z" fill="#0EA5E9"/>
</g>
<path d="M81.6366 75.4926C81.4692 73.9649 81.1135 72.6151 80.5693 71.4432C80.0462 70.2503 79.3242 69.2458 78.4034 68.4297C77.4826 67.5926 76.363 66.9543 75.0446 66.5148C73.7262 66.0754 72.1985 65.8556 70.4616 65.8556C67.176 65.8556 64.0997 66.6718 61.2327 68.3041C58.3866 69.9364 55.9591 72.3116 53.9501 75.4298C51.9411 78.527 50.5704 82.3148 49.8379 86.7932C49.0845 91.2716 49.0845 95.0803 49.8379 98.2194C50.6122 101.358 52.0666 103.755 54.2012 105.408C56.3567 107.04 59.1295 107.856 62.5197 107.856C65.596 107.856 68.3584 107.312 70.8069 106.224C73.2553 105.115 75.2539 103.556 76.8025 101.547C78.372 99.5378 79.3765 97.1626 79.816 94.4211L82.5156 94.8292H65.9727L67.6678 84.5959H94.5696L93.1884 92.6946C92.2885 98.345 90.3109 103.2 87.2556 107.26C84.2002 111.32 80.3915 114.438 75.8294 116.614C71.2882 118.791 66.3075 119.879 60.8874 119.879C54.8604 119.879 49.7856 118.55 45.6629 115.892C41.5612 113.214 38.6419 109.415 36.905 104.498C35.1889 99.5587 34.8855 93.6991 35.9946 86.9188C36.8526 81.7079 38.3803 77.0621 40.5777 72.9813C42.7959 68.8796 45.506 65.4057 48.7078 62.5596C51.9097 59.7135 55.4568 57.5476 59.3493 56.0618C63.2626 54.5759 67.333 53.833 71.5602 53.833C75.2015 53.833 78.4976 54.3667 81.4483 55.4339C84.4199 56.4803 86.9626 57.9661 89.0762 59.8914C91.2108 61.8167 92.8222 64.1082 93.9104 66.766C95.0195 69.4028 95.5322 72.3116 95.4485 75.4926H81.6366Z" fill="#0EA5E9"/>
<path d="M88.1086 119L98.7814 54.712H124.522C129.251 54.712 133.081 55.413 136.011 56.8151C138.961 58.2172 141.023 60.1635 142.195 62.6538C143.367 65.1232 143.681 67.9693 143.136 71.192C142.697 73.7033 141.808 75.9006 140.468 77.7841C139.15 79.6675 137.517 81.2161 135.571 82.4299C133.625 83.6437 131.511 84.5017 129.23 85.0039L129.105 85.6317C131.532 85.7364 133.719 86.427 135.665 87.7035C137.612 88.9592 139.066 90.738 140.029 93.0399C140.991 95.3419 141.211 98.0729 140.688 101.233C140.123 104.644 138.773 107.689 136.639 110.368C134.504 113.025 131.658 115.128 128.1 116.677C124.564 118.226 120.389 119 115.575 119H88.1086ZM103.584 107.888H114.665C118.432 107.888 121.309 107.155 123.298 105.69C125.286 104.225 126.478 102.29 126.876 99.8831C127.148 98.1043 126.97 96.5348 126.342 95.1745C125.736 93.8142 124.7 92.747 123.235 91.9727C121.791 91.1984 119.96 90.8112 117.741 90.8112H106.378L103.584 107.888ZM107.947 81.6137H118.024C119.865 81.6137 121.571 81.2894 123.141 80.6406C124.731 79.971 126.039 79.0292 127.064 77.8155C128.111 76.5808 128.77 75.1263 129.042 73.4522C129.419 71.1083 128.896 69.2354 127.472 67.8332C126.07 66.4102 123.873 65.6987 120.88 65.6987H110.584L107.947 81.6137Z" fill="#0EA5E9"/>
<circle cx="147.219" cy="113" r="7" fill="#CCE5FF"/>
<defs>
<filter id="filter0_f_7220_89" x="-0.000391006" y="20.9742" width="126.446" height="131.561" filterUnits="userSpaceOnUse" color-interpolation-filters="sRGB">
<feFlood flood-opacity="0" result="BackgroundImageFix"/>
<feBlend mode="normal" in="SourceGraphic" in2="BackgroundImageFix" result="shape"/>
<feGaussianBlur stdDeviation="15.3" result="effect1_foregroundBlur_7220_89"/>
</filter>
<filter id="filter1_f_7220_89" x="57.2906" y="21.9098" width="120.694" height="129.69" filterUnits="userSpaceOnUse" color-interpolation-filters="sRGB">
<feFlood flood-opacity="0" result="BackgroundImageFix"/>
<feBlend mode="normal" in="SourceGraphic" in2="BackgroundImageFix" result="shape"/>
<feGaussianBlur stdDeviation="15.3" result="effect1_foregroundBlur_7220_89"/>
</filter>
</defs>
</svg>
